<svg width="20" height="20" viewBox="0 0 20 20" fill="none" xmlns="http://www.w3.org/2000/svg">
<path d="M16.3543 9.20793L10.7965 3.65007C10.6907 3.54887 10.5661 3.46954 10.4296 3.41663C10.159 3.30546 9.85547 3.30546 9.58484 3.41663C9.44839 3.46954 9.32374 3.54887 9.21802 3.65007L3.66016 9.20793C3.55651 9.31157 3.4743 9.43461 3.41821 9.57003C3.36212 9.70544 3.33325 9.85058 3.33325 9.99715C3.33325 10.2932 3.45084 10.5771 3.66016 10.7864C3.86947 10.9957 4.15336 11.1133 4.44937 11.1133C4.74539 11.1133 5.02928 10.9957 5.23859 10.7864L8.89567 7.11817V15.555C8.89567 15.8498 9.01278 16.1326 9.22124 16.341C9.4297 16.5495 9.71243 16.6666 10.0072 16.6666C10.302 16.6666 10.5848 16.5495 10.7932 16.341C11.0017 16.1326 11.1188 15.8498 11.1188 15.555V7.11817L14.7759 10.7864C14.8792 10.8906 15.0022 10.9732 15.1376 11.0297C15.2731 11.0861 15.4184 11.1152 15.5651 11.1152C15.7118 11.1152 15.8571 11.0861 15.9926 11.0297C16.128 10.9732 16.251 10.8906 16.3543 10.7864C16.4585 10.683 16.5412 10.5601 16.5976 10.4246C16.6541 10.2892 16.6831 10.1439 16.6831 9.99715C16.6831 9.85041 16.6541 9.70512 16.5976 9.56966C16.5412 9.43421 16.4585 9.31127 16.3543 9.20793Z" fill="#404A5C"/>
</svg>
