<svg width="17" height="16" viewBox="0 0 17 16" fill="none" xmlns="http://www.w3.org/2000/svg">
<path fill-rule="evenodd" clip-rule="evenodd" d="M15.119 6.32443C15.0112 6.00111 14.7368 5.7689 14.4046 5.71779L10.8867 5.18003L9.30883 1.8124C9.00882 1.17354 7.99101 1.17354 7.691 1.8124L6.11317 5.18003L2.59528 5.71779C2.26305 5.7689 1.9886 6.00111 1.88082 6.32443C1.77192 6.6533 1.85304 7.01106 2.09304 7.25661L4.65646 9.88761L4.04866 13.6097C3.99311 13.9585 4.13533 14.3008 4.42312 14.503C4.57646 14.6119 4.75424 14.6663 4.93203 14.6663C5.07981 14.6663 5.22648 14.6296 5.36093 14.5552L8.49992 12.8186L11.6389 14.5552C11.9356 14.7196 12.2967 14.7018 12.5767 14.503C12.8645 14.3008 13.0067 13.9585 12.9501 13.6086L12.3434 9.88761L14.9068 7.25661C15.1468 7.01106 15.2279 6.6533 15.119 6.32443"/>
</svg>
